# xmcd CD database file
#
# Track frame offsets:
#	150
#	16024
#	31126
#	50029
#	64742
#	82734
#	94572
#	110958
#	129020
#	146056
#	162047
#	176243
#	190397
#	203199
#	216711
#	234491
#	253690
#	268583
#	284734
#	301757
#
# Disc length: 4281 seconds
#
# Revision: 0
# Processed by: cddbd v1.5.2PL0 Copyright (c) Steve Scherf et al.
# Submitted via: CDex 1.79
#
DISCID=2210b714
DTITLE=Various Artist - Hot country.mix 2009 CD 2
DYEAR=1900
DGENRE=Country
TTITLE0=All American girl
TTITLE1=Country roads
TTITLE2=Breathless
TTITLE3=Hearts on fire
TTITLE4=I need more of you
TTITLE5=On the wings of a nightingale
TTITLE6=Some broken hearts never mend
TTITLE7=Country boy
TTITLE8=Cowgirls don't cry
TTITLE9=Redneck woman
TTITLE10=See you again
TTITLE11=Cotton eye Joe
TTITLE12=Achy breaky heart
TTITLE13=No no never
TTITLE14=Not ready to make nice
TTITLE15=How do I live
TTITLE16=Feel that fire
TTITLE17=And the night stood still
TTITLE18=Sweet thing
TTITLE19=Fast cars and freedom
EXTD=
EXTT0=
EXTT1=
EXTT2=
EXTT3=
EXTT4=
EXTT5=
EXTT6=
EXTT7=
EXTT8=
EXTT9=
EXTT10=
EXTT11=
EXTT12=
EXTT13=
EXTT14=
EXTT15=
EXTT16=
EXTT17=
EXTT18=
EXTT19=
PLAYORDER=
